<svg xmlns:dc="http://purl.org/dc/elements/1.1/" xmlns:cc="http://creativecommons.org/ns#" xmlns:rdf="http://www.w3.org/1999/02/22-rdf-syntax-ns#" xmlns:svg="http://www.w3.org/2000/svg" xmlns="http://www.w3.org/2000/svg" viewBox="0 0 360 360" fill="none"><metadata><rdf:RDF><cc:Work><dc:format>image/svg+xml</dc:format><dc:type rdf:resource="http://purl.org/dc/dcmitype/StillImage"/><dc:title>Avatar Illustration System</dc:title><dc:creator><cc:Agent><dc:title>Micah Lanier</dc:title></cc:Agent></dc:creator><dc:source>https://www.figma.com/community/file/829741575478342595</dc:source><cc:license rdf:resource="https://creativecommons.org/licenses/by/4.0/"/></cc:Work><cc:License rdf:about="https://creativecommons.org/licenses/by/4.0/"><cc:permits rdf:resource="https://creativecommons.org/ns#Reproduction"/><cc:permits rdf:resource="https://creativecommons.org/ns#Distribution"/><cc:permits rdf:resource="https://creativecommons.org/ns#DerivativeWorks"/><cc:requires rdf:resource="https://creativecommons.org/ns#Notice"/><cc:requires rdf:resource="https://creativecommons.org/ns#Attribution"/></cc:License></rdf:RDF></metadata><mask id="avatarsRadiusMask"><rect width="360" height="360" rx="0" ry="0" x="0" y="0" fill="#fff"/></mask><g mask="url(#avatarsRadiusMask)"><g transform="translate(80 23)"><path d="M154 319.5c-14.4-20-25.667-58.666-27-78L58.5 212 30 319.5h124Z" fill="rgba(119, 49, 29, 1)" stroke="#000" stroke-width="4"/><mask id="baseStandard-a" style="mask-type:alpha" maskUnits="userSpaceOnUse" x="30" y="212" width="124" height="118"><path d="M154 329.5c-14.4-20-25.667-68.666-27-88L58.5 212 30 329.5h124Z" fill="rgba(119, 49, 29, 1)"/></mask><g mask="url(#baseStandard-a)"><ellipse cx="124" cy="210" rx="59" ry="54" fill="#000" style="mix-blend-mode:multiply"/></g><path d="m181.939 151.374.002.009.093.389.144.654c8.851 40.206-16.109 80.258-56.315 89.89-40.205 9.633-80.606-14.759-90.935-54.61l-.19-.733-16.735-69.844-.067-.289C8.512 76.334 33.544 35.757 74.048 26.053c40.504-9.704 81.206 15.123 91.161 55.501l.051.208.02.083.001.005.048.198.047.199.002.004 16.396 68.437.003.009.081.338.081.339Z" fill="rgba(119, 49, 29, 1)" stroke="#000" stroke-width="4"/><g><g transform="translate(34 102.3)"><g fill="rgba(119, 49, 29, 1)" stroke="rgba(119, 49, 29, 1)"><path d="M31 109a1 1 0 1 1-2 0 1 1 0 0 1 2 0ZM83 116a1 1 0 1 1-2 0 1 1 0 0 1 2 0ZM79 123a1 1 0 1 1-2 0 1 1 0 0 1 2 0ZM99 121a1 1 0 1 1-2 0 1 1 0 0 1 2 0ZM100 111a1 1 0 1 1-2 0 1 1 0 0 1 2 0ZM120 116a1 1 0 1 1-2 0 1 1 0 0 1 2 0ZM130 102a1 1 0 1 1-2 0 1 1 0 0 1 2 0ZM21 88a1 1 0 1 1-2 0 1 1 0 0 1 2 0ZM54 104a1 1 0 1 1-2 0 1 1 0 0 1 2 0ZM51 124a1 1 0 1 1-2 0 1 1 0 0 1 2 0ZM69 128a1 1 0 1 1-2 0 1 1 0 0 1 2 0ZM103 102a1 1 0 1 1-2 0 1 1 0 0 1 2 0ZM117 106a1 1 0 1 1-2 0 1 1 0 0 1 2 0ZM109 123a1 1 0 1 1-2 0 1 1 0 0 1 2 0ZM123 92a1 1 0 1 1-2 0 1 1 0 0 1 2 0ZM30 94a1 1 0 1 1-2 0 1 1 0 0 1 2 0ZM54 94a1 1 0 1 1-2 0 1 1 0 0 1 2 0ZM54 76a1 1 0 1 1-2 0 1 1 0 0 1 2 0ZM58 130a1 1 0 1 1-2 0 1 1 0 0 1 2 0ZM85 130a1 1 0 1 1-2 0 1 1 0 0 1 2 0ZM96 130a1 1 0 1 1-2 0 1 1 0 0 1 2 0ZM113 94a1 1 0 1 1-2 0 1 1 0 0 1 2 0ZM113 76a1 1 0 1 1-2 0 1 1 0 0 1 2 0ZM133 89a1 1 0 1 1-2 0 1 1 0 0 1 2 0ZM33 81a1 1 0 1 1-2 0 1 1 0 0 1 2 0ZM43 116a1 1 0 1 1-2 0 1 1 0 0 1 2 0ZM39 123a1 1 0 1 1-2 0 1 1 0 0 1 2 0ZM79 103a1 1 0 1 1-2 0 1 1 0 0 1 2 0ZM91 105a1 1 0 1 1-2 0 1 1 0 0 1 2 0ZM77 135a1 1 0 1 1-2 0 1 1 0 0 1 2 0ZM100 84a1 1 0 1 1-2 0 1 1 0 0 1 2 0ZM100 66a1 1 0 1 1-2 0 1 1 0 0 1 2 0ZM124 81a1 1 0 1 1-2 0 1 1 0 0 1 2 0ZM131 71a1 1 0 1 1-2 0 1 1 0 0 1 2 0ZM42 90a1 1 0 1 1-2 0 1 1 0 0 1 2 0ZM42 101a1 1 0 1 1-2 0 1 1 0 0 1 2 0ZM63 86a1 1 0 1 1-2 0 1 1 0 0 1 2 0ZM63 68a1 1 0 1 1-2 0 1 1 0 0 1 2 0ZM75 82a1 1 0 1 1-2 0 1 1 0 0 1 2 0ZM87 76a1 1 0 1 1-2 0 1 1 0 0 1 2 0ZM100 76a1 1 0 1 1-2 0 1 1 0 0 1 2 0Z" fill="#000"/><path d="M113 76a1 1 0 1 1-2 0 1 1 0 0 1 2 0ZM139 76a1 1 0 1 1-2 0 1 1 0 0 1 2 0ZM61 116a1 1 0 1 1-2 0 1 1 0 0 1 2 0ZM72 110a1 1 0 1 1-2 0 1 1 0 0 1 2 0ZM68 102a1 1 0 1 1-2 0 1 1 0 0 1 2 0ZM92 93a1 1 0 1 1-2 0 1 1 0 0 1 2 0ZM43 75a1 1 0 1 1-2 0 1 1 0 0 1 2 0ZM80 91a1 1 0 1 1-2 0 1 1 0 0 1 2 0ZM80 73a1 1 0 1 1-2 0 1 1 0 0 1 2 0ZM115 87a1 1 0 1 1-2 0 1 1 0 0 1 2 0ZM115 69a1 1 0 1 1-2 0 1 1 0 0 1 2 0ZM122 71a1 1 0 1 1-2 0 1 1 0 0 1 2 0ZM137 62a1 1 0 1 1-2 0 1 1 0 0 1 2 0Z" fill="#000"/><path d="M31 109a1 1 0 1 1-2 0 1 1 0 0 1 2 0ZM83 116a1 1 0 1 1-2 0 1 1 0 0 1 2 0ZM79 123a1 1 0 1 1-2 0 1 1 0 0 1 2 0ZM99 121a1 1 0 1 1-2 0 1 1 0 0 1 2 0ZM100 111a1 1 0 1 1-2 0 1 1 0 0 1 2 0ZM120 116a1 1 0 1 1-2 0 1 1 0 0 1 2 0ZM130 102a1 1 0 1 1-2 0 1 1 0 0 1 2 0ZM21 88a1 1 0 1 1-2 0 1 1 0 0 1 2 0ZM54 104a1 1 0 1 1-2 0 1 1 0 0 1 2 0ZM51 124a1 1 0 1 1-2 0 1 1 0 0 1 2 0ZM69 128a1 1 0 1 1-2 0 1 1 0 0 1 2 0ZM103 102a1 1 0 1 1-2 0 1 1 0 0 1 2 0ZM117 106a1 1 0 1 1-2 0 1 1 0 0 1 2 0ZM109 123a1 1 0 1 1-2 0 1 1 0 0 1 2 0ZM123 92a1 1 0 1 1-2 0 1 1 0 0 1 2 0ZM30 94a1 1 0 1 1-2 0 1 1 0 0 1 2 0ZM54 94a1 1 0 1 1-2 0 1 1 0 0 1 2 0ZM54 76a1 1 0 1 1-2 0 1 1 0 0 1 2 0ZM58 130a1 1 0 1 1-2 0 1 1 0 0 1 2 0ZM85 130a1 1 0 1 1-2 0 1 1 0 0 1 2 0ZM96 130a1 1 0 1 1-2 0 1 1 0 0 1 2 0ZM113 94a1 1 0 1 1-2 0 1 1 0 0 1 2 0ZM113 76a1 1 0 1 1-2 0 1 1 0 0 1 2 0ZM133 89a1 1 0 1 1-2 0 1 1 0 0 1 2 0ZM33 81a1 1 0 1 1-2 0 1 1 0 0 1 2 0ZM43 116a1 1 0 1 1-2 0 1 1 0 0 1 2 0ZM39 123a1 1 0 1 1-2 0 1 1 0 0 1 2 0ZM79 103a1 1 0 1 1-2 0 1 1 0 0 1 2 0ZM91 105a1 1 0 1 1-2 0 1 1 0 0 1 2 0ZM77 135a1 1 0 1 1-2 0 1 1 0 0 1 2 0ZM100 84a1 1 0 1 1-2 0 1 1 0 0 1 2 0ZM100 66a1 1 0 1 1-2 0 1 1 0 0 1 2 0ZM124 81a1 1 0 1 1-2 0 1 1 0 0 1 2 0ZM131 71a1 1 0 1 1-2 0 1 1 0 0 1 2 0ZM42 90a1 1 0 1 1-2 0 1 1 0 0 1 2 0ZM42 101a1 1 0 1 1-2 0 1 1 0 0 1 2 0ZM63 86a1 1 0 1 1-2 0 1 1 0 0 1 2 0ZM63 68a1 1 0 1 1-2 0 1 1 0 0 1 2 0ZM75 82a1 1 0 1 1-2 0 1 1 0 0 1 2 0ZM87 76a1 1 0 1 1-2 0 1 1 0 0 1 2 0ZM100 76a1 1 0 1 1-2 0 1 1 0 0 1 2 0Z" stroke="#000"/><path d="M113 76a1 1 0 1 1-2 0 1 1 0 0 1 2 0ZM139 76a1 1 0 1 1-2 0 1 1 0 0 1 2 0ZM61 116a1 1 0 1 1-2 0 1 1 0 0 1 2 0ZM72 110a1 1 0 1 1-2 0 1 1 0 0 1 2 0ZM68 102a1 1 0 1 1-2 0 1 1 0 0 1 2 0ZM92 93a1 1 0 1 1-2 0 1 1 0 0 1 2 0ZM43 75a1 1 0 1 1-2 0 1 1 0 0 1 2 0ZM80 91a1 1 0 1 1-2 0 1 1 0 0 1 2 0ZM80 73a1 1 0 1 1-2 0 1 1 0 0 1 2 0ZM115 87a1 1 0 1 1-2 0 1 1 0 0 1 2 0ZM115 69a1 1 0 1 1-2 0 1 1 0 0 1 2 0ZM122 71a1 1 0 1 1-2 0 1 1 0 0 1 2 0ZM137 62a1 1 0 1 1-2 0 1 1 0 0 1 2 0Z" stroke="#000"/></g></g></g></g><g transform="translate(170 183)"><path d="M-5 41c3.21-7.957 15.107-24.767 37.007-28.348 21.9-3.58 33.12 8.455 35.993 14.92" stroke="rgba(0, 0, 0, 1)" stroke-width="4"/></g><g transform="translate(110 102)"><g stroke="rgba(0, 0, 0, 1)" stroke-width="4" stroke-linecap="round"><path d="M27 26.5c6.167 2.5 21.1 3 31.5-15M94 4c5.167 5.333 18.1 12.8 28.5 0"/></g></g><g transform="translate(49 11)"><g stroke="#000"><path d="M105.837 88.82c1.888.297 1.888.299 1.887.3v.004l-.001.007-.003.018a.813.813 0 0 0-.009.05l-.031.157a11.69 11.69 0 0 1-.125.528 20.355 20.355 0 0 1-.6 1.894c-.595 1.625-1.626 3.958-3.393 6.923-3.17 5.317-8.702 12.658-18.316 21.589 29.97.747 55.004-8.908 72.821-19.033 9.361-5.32 16.712-10.759 21.717-14.863a118.433 118.433 0 0 0 5.698-4.965 74.331 74.331 0 0 0 1.804-1.742c.039-.04.067-.07.086-.088l.019-.02.004-.004 2.282-2.374.929 3.16-1.834.538 1.834-.538.001.002.002.009.01.034.039.132.152.52.581 1.993a2171.99 2171.99 0 0 1 8.771 31.058c5.027 18.348 10.604 39.815 12.693 51.971 3.493 20.318-1.908 35.744-5.102 44.869-.621 1.774-1.159 3.31-1.531 4.597.053.045.123.1.214.165.597.423 1.656.911 3.187 1.397 3.015.959 7.319 1.745 11.921 2.188 4.594.442 9.377.532 13.338.146 1.982-.194 3.705-.502 5.075-.92 1.316-.402 2.14-.857 2.585-1.268.013-.086.031-.291-.019-.688-.098-.776-.405-1.868-.937-3.313-.793-2.157-1.969-4.798-3.344-7.885a820.46 820.46 0 0 1-1.46-3.294c-3.929-8.939-8.656-20.564-9.686-32.408-1.144-13.161 1.457-24.416 3.794-34.533l.111-.482c2.388-10.34 4.375-19.319 2.335-28.419-3.096-13.81-7.319-25.308-13.804-33.57-6.417-8.174-15.12-13.276-27.496-14.214l-1.278-.096-.395-1.22c-5.695-17.57-13.383-29.051-23.186-36.17-9.8-7.117-21.956-10.051-36.939-10.051-27.688 0-57.503 10.52-79.878 28.718-22.351 18.18-37.143 43.896-35.208 74.334 2.136 33.591-.298 59.061-5.788 77.712-5.006 17.007-12.593 28.466-21.688 35.15 1.194.609 2.784 1.383 4.771 2.269 5.027 2.24 12.591 5.198 22.674 8.027 19.334 5.425 47.945 10.38 85.711 8.887-8.325-7.151-16.723-15.828-23.374-25-7.633-10.527-13.135-21.943-13.296-32.575-.191-12.627.664-45.668.928-52.507.615-15.896 10.822-28.15 20.538-36.3 4.887-4.099 9.728-7.228 13.344-9.331a87.365 87.365 0 0 1 4.38-2.39c.53-.27.949-.474 1.239-.612l.208-.099a24.4 24.4 0 0 1 .126-.058l.09-.042.025-.011.007-.004h.003c.001-.001.001-.001.787 1.74Zm0 0 1.888.297.551-3.494-3.225 1.455.786 1.742Zm100.231 126.568c.003 0 .014.014.029.04-.024-.027-.031-.04-.029-.04Z" fill="rgba(249, 201, 182, 1)" stroke-width="3.822"/><path d="M191 58c.5 4.5-.3 13.5-1.5 19.5" stroke-width="4"/></g></g><g transform="translate(142 119)"><circle cx="15.24" cy="20.239" r="12" transform="rotate(-6.276 15.24 20.24)" fill="rgba(255, 237, 239, 1)"/><ellipse cx="16.53" cy="29.402" rx="9" ry="13.5" transform="rotate(-6.776 16.53 29.402)" fill="#000"/><circle cx="79.019" cy="11.611" r="12" transform="rotate(-6.276 79.02 11.61)" fill="rgba(255, 237, 239, 1)"/><ellipse cx="80.531" cy="19.402" rx="9" ry="13.5" transform="rotate(-6.276 80.531 19.402)" fill="#000"/><g><g transform="translate(-40 -8)"/></g></g><g transform="rotate(-8 1149.438 -1186.916)"><path d="M16.5 7c-.333 3.833 0 12.2 4 15 5 3.5-.5 12-10.5 10" stroke="#000" stroke-width="4"/></g><g transform="translate(84 154)"><path d="M37 8.25V7.13l-.954-.585C32.312 4.254 27.772 3 23.08 3 17.44 3 12.16 4.747 8.398 8.295c-3.804 3.587-5.856 8.832-5.311 15.371.53 6.372 2.67 11.061 6.218 14.177a8.013 8.013 0 0 0-.243 3.21c.39 3.269 2.042 5.624 4.595 7.075C16.091 49.51 19.207 50 22.524 50c5.48 0 10.284-2.947 13.942-6.889l.534-.575V8.249Z" stroke="#000" stroke-width="4"/><path d="M42.972 23.984c.071-.652.108-1.314.108-1.984 0-10.217-9.507-17-20-17s-19 6.5-18 18.5c.556 6.677 2.946 11.072 6.65 13.717-.588 1.024-.845 2.227-.682 3.6.63 5.281 5.138 7.183 11.476 7.183 11.105 0 19.892-14.047 20.448-24.016Z" fill="rgba(119, 49, 29, 1)"/><path d="M27.5 13.5c-4-1.833-12.8-2.8-16 8" stroke="#000" stroke-width="4"/><path d="M17 14c2.167 1.833 6.3 7.5 5.5 15.5" stroke="#000" stroke-width="4"/><g transform="translate(3 42)"><path d="M24 0c13.255 0 24 10.745 24 24S37.255 48 24 48 0 37.255 0 24c0-6.391 3.5-11.5 6.572-16.5L7.5 6" stroke="rgba(210, 239, 243, 1)" stroke-width="4"/></g></g><g transform="translate(53 272)"><g stroke="#000" stroke-width="4"><path d="M126.771 67.578 128 66l-1.229 1.578 1.722 1.34 1.186-1.83v-.001l.002-.003.009-.014.041-.063.038-.058.131-.196c.15-.225.375-.558.67-.984.588-.85 1.453-2.067 2.548-3.523 2.194-2.914 5.298-6.764 8.953-10.528 3.666-3.773 7.827-7.4 12.127-9.925 4.316-2.533 8.579-3.844 12.535-3.31 42.438 5.722 73.669 24.519 93.941 52.518h-273.3c16.3-29.342 39.484-48.019 77.07-56.588 1.602-.366 3.78-.255 6.503.379 2.695.626 5.768 1.727 9.081 3.184 6.627 2.913 14.024 7.16 20.976 11.56 6.941 4.394 13.386 8.907 18.1 12.324a364.95 364.95 0 0 1 5.605 4.144c.665.502 1.182.896 1.532 1.165l.398.306.1.078.025.02.006.004h.001Z" fill="rgba(224, 221, 255, 1)"/><path d="m52.613 37.085 5.166-19.232c.21-.779 1.217-.999 1.761-.404 14.863 16.265 33.62 15.627 39.845 14.88.845-.1 1.507.824 1.11 1.577L87.338 58.859a.95.95 0 0 1-1.038.505c-3.948-.823-23.623-5.632-33.571-21.497a.991.991 0 0 1-.116-.782ZM183.195 36.981 171.615 17.5c-.393-.662-1.362-.65-1.781-.005-5.737 8.836-15.632 12.906-19.092 14.108-.622.217-.907.956-.571 1.523l13.502 22.815c.202.34.582.525.963.417 2.135-.608 9.46-3.672 18.546-18.336.196-.315.203-.72.013-1.04Z" fill="rgba(224, 221, 255, 1)"/><path d="m52.613 37.085 5.166-19.232c.21-.779 1.217-.999 1.761-.404 14.863 16.265 33.62 15.627 39.845 14.88.845-.1 1.507.824 1.11 1.577L87.338 58.859a.95.95 0 0 1-1.038.505c-3.948-.823-23.623-5.632-33.571-21.497a.991.991 0 0 1-.116-.782ZM183.195 36.981 171.615 17.5c-.393-.662-1.362-.65-1.781-.005-5.737 8.836-15.632 12.906-19.092 14.108-.622.217-.907.956-.571 1.523l13.502 22.815c.202.34.582.525.963.417 2.135-.608 9.46-3.672 18.546-18.336.196-.315.203-.72.013-1.04Z" fill="#fff" fill-opacity=".75"/><path d="m109.5 54.5-9-21.5-7 15 16 6.5ZM141 53.5l9-21.5 7 15-16 6.5ZM70.5 14l-12 3 10 6.5 2-9.5ZM160 14l11 3-7 6.5-4-9.5Z" fill="#000" stroke-linejoin="round"/></g></g></g></svg>